# xmcd
#
# Track frame offsets:
#	150
#	16533
#	31398
#	48618
#	64081
#	79804
#	99543
#	118021
#	132682
#	147560
#	161224
#	177442
#	193790
#	208840
#	223866
#	241397
#	255979
#	274060
#	292642
#	309245
#	325815
#
# Disc length: 4554 seconds
#
# Revision: 1
# Processed by: cddbd v1.5.2PL0 Copyright (c) Steve Scherf et al.
# Submitted via: EasyCDDAExtractor 11.5.0.1
#
DISCID=3c11c815
DTITLE=Various Artist - NCT 085
DYEAR=2006
DGENRE=Country
TTITLE0=Rascal Flatts - Me And My Gang
TTITLE1=Toby Keith - A Little Too Late
TTITLE2=Miranda Lambert - New Strings
TTITLE3=Sara Evans - Coalmine
TTITLE4=Josh Turner - Would You Go With Me
TTITLE5=Garth Brooks - That Girl Is A Cowboy
TTITLE6=Mark Wills - Hank
TTITLE7=Jamey Johnson - Rebelicious
TTITLE8=Deryl Dodd - I'm Not Home Right Now
TTITLE9=Darryl Worley - Nothin' But A Love Thang
TTITLE10=Rio Grand - Kill Me Now
TTITLE11=Matt Jenkins - Bad As I Want To
TTITLE12=Trace Adkins - Swing
TTITLE13=Rockie Lynne - Do We Still
TTITLE14=Van Zant - Things I Miss The Most
TTITLE15=Lee Roy Parnell - Don't Water It Down
TTITLE16=Chris Cagle - Anywhere But Here
TTITLE17=Todd Fritsch - I Don't Live Here Anymore
TTITLE18=Jeff Bates - One Second Change
TTITLE19=Natalie Howard - I Don't Want To Live Like That
TTITLE20=Morrison-Williams - I Still Talk To You
EXTD=
EXTT0=
EXTT1=
EXTT2=
EXTT3=
EXTT4=
EXTT5=
EXTT6=
EXTT7=
EXTT8=
EXTT9=
EXTT10=
EXTT11=
EXTT12=
EXTT13=
EXTT14=
EXTT15=
EXTT16=
EXTT17=
EXTT18=
EXTT19=
EXTT20=
PLAYORDER=
